<?xml version="1.0" encoding="UTF-8"?>
<svg xmlns="http://www.w3.org/2000/svg" xmlns:xlink="http://www.w3.org/1999/xlink" width="375pt" height="149.999998pt" viewBox="0 0 375 149.999998" version="1.2">
<defs>
<clipPath id="clip1">
  <path d="M 0 24.546875 L 375 24.546875 L 375 125.796875 L 0 125.796875 Z M 0 24.546875 "/>
</clipPath>
</defs>
<g id="surface1">
<g clip-path="url(#clip1)" clip-rule="nonzero">
<path style=" stroke:none;fill-rule:nonzero;fill:rgb(255, 0, 0);fill-opacity:1;" d="M 52.191406 119.578125 C 46.578125 120.570312 40.863281 120.871094 34.953125 121.664062 L 16.925781 68.488281 L 16.925781 123.945312 C 11.3125 124.539062 6.1875 125.335938 0.867188 126.128906 L 0.867188 24.546875 L 15.839844 24.546875 L 36.332031 82.179688 L 36.332031 24.546875 L 52.191406 24.546875 Z M 83.222656 61.746094 L 104.308594 61.445312 L 104.308594 77.304688 L 83.222656 77.601562 L 83.222656 101.210938 L 111.101562 99.523438 L 111.101562 114.796875 L 67.460938 118.269531 L 67.460938 24.546875 L 111.101562 24.546875 L 111.101562 40.402344 L 83.222656 40.402344 Z M 169.714844 40.417969 L 153.371094 40.417969 L 153.371094 113.429688 L 137.625 113.628906 L 137.625 40.417969 L 121.253906 40.417969 L 121.253906 24.546875 L 169.722656 24.546875 L 169.722656 40.417969 Z M 195.328125 60.652344 L 216.90625 60.652344 L 216.90625 76.511719 L 195.324219 76.511719 L 195.324219 112.539062 L 179.859375 112.539062 L 179.859375 24.546875 L 223.894531 24.546875 L 223.894531 40.402344 L 195.332031 40.402344 L 195.332031 60.640625 Z M 249.511719 98.648438 C 258.480469 98.847656 267.539062 99.539062 276.308594 100.035156 L 276.308594 115.710938 L 233.75 113.625 L 233.75 24.546875 L 249.496094 24.546875 L 249.496094 98.648438 Z M 289.609375 116.800781 C 294.632812 117.097656 299.953125 117.398438 305.074219 117.992188 L 305.074219 24.546875 L 289.605469 24.546875 L 289.605469 116.804688 Z M 374.132812 24.546875 L 354.132812 72.855469 L 374.140625 126.128906 C 368.226562 125.335938 362.316406 124.242188 356.40625 123.25 L 345.078125 93.886719 L 333.550781 120.871094 C 327.835938 119.878906 322.320312 119.578125 316.609375 118.785156 L 336.902344 72.261719 L 318.558594 24.546875 L 335.503906 24.546875 L 345.847656 51.230469 L 356.898438 24.546875 Z M 374.132812 24.546875 "/>
</g>
</g>
</svg>
